# MagicaVoxel @ Ephtracy

# group
o 

# material
mtllib chest.mtl
usemtl palette

# normals
vn -1 0 0
vn 1 0 0
vn 0 0 1
vn 0 0 -1
vn 0 -1 0
vn 0 1 0

# texcoords
vt 0.00585938 0.5
vt 0.00976562 0.5
vt 0.0136719 0.5

# verts
v -2 1 0.4
v -2 1 -0.5
v -2 1.3 0.1
v -2 1.3 -0.2
v -2 1.7 0.4
v -2 1.7 0.1
v -2 1.7 -0.2
v -2 1.7 -0.5
v -1.8 0 1.2
v -1.8 0 -1.3
v -1.8 0.2 0.9
v -1.8 0.2 -1
v -1.8 1.4 1.4
v -1.8 1.4 1.2
v -1.8 1.4 0.9
v -1.8 1.4 0.4
v -1.8 1.4 0.1
v -1.8 1.4 -0.2
v -1.8 1.4 -0.5
v -1.8 1.4 -1
v -1.8 1.4 -1.3
v -1.8 1.4 -1.5
v -1.8 1.7 1.4
v -1.8 1.7 0.4
v -1.8 1.7 0.1
v -1.8 1.7 -0.2
v -1.8 1.7 -0.5
v -1.8 1.7 -1.5
v -1.6 0 1.4
v -1.6 0 1.2
v -1.6 0 -1.3
v -1.6 0 -1.5
v -1.6 0.2 0.9
v -1.6 0.2 -1
v -1.6 1.4 1.4
v -1.6 1.4 1.2
v -1.6 1.4 0.9
v -1.6 1.4 -1
v -1.6 1.4 -1.3
v -1.6 1.4 -1.5
v -0.8 0.2 1.4
v -0.8 0.2 1.2
v -0.8 0.2 -1.3
v -0.8 0.2 -1.5
v -0.8 1.4 1.4
v -0.8 1.4 1.2
v -0.8 1.4 -1.3
v -0.8 1.4 -1.5
v -0.4 1.3 1.4
v -0.4 1.3 1.2
v -0.4 1.4 1.4
v -0.4 1.4 1.2
v -0.2 1.1 1.4
v -0.2 1.1 1.2
v -0.2 1.3 1.4
v -0.2 1.3 1.2
v 0.1 1.5 1.4
v 0.1 1.5 1.1
v 0.1 1.7 1.4
v 0.1 1.7 1.1
v 0.5 0.2 1.4
v 0.5 0.2 1.2
v 0.5 0.2 -1.3
v 0.5 0.2 -1.5
v 0.5 1.4 1.4
v 0.5 1.4 1.2
v 0.5 1.4 -1.3
v 0.5 1.4 -1.5
v 1.3 0.2 1.4
v 1.3 0.2 1.2
v 1.3 0.2 -1.3
v 1.3 0.2 -1.5
v 1.3 1.4 1.4
v 1.3 1.4 1.2
v 1.3 1.4 -1.3
v 1.3 1.4 -1.5
v 1.4 1.6 1.1
v 1.4 1.6 -1.2
v 1.4 1.6 -1.3
v 1.4 1.7 1.1
v 1.4 1.7 -1.3
v 1.5 0.1 1.1
v 1.5 0.1 -1.2
v 1.5 1.6 1.1
v 1.5 1.6 -1.2
v 1.7 1 0.4
v 1.7 1 -0.5
v 1.7 1.3 0.1
v 1.7 1.3 -0.2
v 1.7 1.4 0.4
v 1.7 1.4 0.1
v 1.7 1.4 -0.2
v 1.7 1.4 -0.5
v -1.7 1 0.4
v -1.7 1 -0.5
v -1.7 1.3 0.1
v -1.7 1.3 -0.2
v -1.7 1.4 0.4
v -1.7 1.4 0.1
v -1.7 1.4 -0.2
v -1.7 1.4 -0.5
v -1.5 0.1 1.1
v -1.5 0.1 -1.2
v -1.5 1.6 1.1
v -1.5 1.6 -1.2
v -1.4 1.6 1.1
v -1.4 1.6 -1.2
v -1.4 1.6 -1.3
v -1.4 1.7 1.1
v -1.4 1.7 -1.3
v -1.3 0.2 1.4
v -1.3 0.2 1.2
v -1.3 0.2 -1.3
v -1.3 0.2 -1.5
v -1.3 1.4 1.4
v -1.3 1.4 1.2
v -1.3 1.4 -1.3
v -1.3 1.4 -1.5
v -0.5 0.2 1.4
v -0.5 0.2 1.2
v -0.5 0.2 -1.3
v -0.5 0.2 -1.5
v -0.5 1.4 1.4
v -0.5 1.4 1.2
v -0.5 1.4 -1.3
v -0.5 1.4 -1.5
v -0.0999999 1.5 1.4
v -0.0999999 1.5 1.1
v -0.0999999 1.7 1.4
v -0.0999999 1.7 1.1
v 0.2 1.1 1.4
v 0.2 1.1 1.2
v 0.2 1.3 1.4
v 0.2 1.3 1.2
v 0.4 1.3 1.4
v 0.4 1.3 1.2
v 0.4 1.4 1.4
v 0.4 1.4 1.2
v 0.8 0.2 1.4
v 0.8 0.2 1.2
v 0.8 0.2 -1.3
v 0.8 0.2 -1.5
v 0.8 1.4 1.4
v 0.8 1.4 1.2
v 0.8 1.4 -1.3
v 0.8 1.4 -1.5
v 1.6 0 1.4
v 1.6 0 1.2
v 1.6 0 -1.3
v 1.6 0 -1.5
v 1.6 0.2 0.9
v 1.6 0.2 -1
v 1.6 1.4 1.4
v 1.6 1.4 1.2
v 1.6 1.4 0.9
v 1.6 1.4 -1
v 1.6 1.4 -1.3
v 1.6 1.4 -1.5
v 1.8 0 1.2
v 1.8 0 -1.3
v 1.8 0.2 0.9
v 1.8 0.2 -1
v 1.8 1.4 1.4
v 1.8 1.4 1.2
v 1.8 1.4 0.9
v 1.8 1.4 0.4
v 1.8 1.4 0.1
v 1.8 1.4 -0.2
v 1.8 1.4 -0.5
v 1.8 1.4 -1
v 1.8 1.4 -1.3
v 1.8 1.4 -1.5
v 1.8 1.7 1.4
v 1.8 1.7 0.4
v 1.8 1.7 0.1
v 1.8 1.7 -0.2
v 1.8 1.7 -0.5
v 1.8 1.7 -1.5
v 2 1 0.4
v 2 1 -0.5
v 2 1.3 0.1
v 2 1.3 -0.2
v 2 1.7 0.4
v 2 1.7 0.1
v 2 1.7 -0.2
v 2 1.7 -0.5
v -1.8 1.4 1.4
v -1.8 1.7 1.4
v -1.6 0 1.4
v -1.6 1.4 1.4
v -1.3 0.2 1.4
v -1.3 1.4 1.4
v -0.8 0.2 1.4
v -0.8 1.4 1.4
v -0.5 0.2 1.4
v -0.5 1.4 1.4
v -0.4 1.3 1.4
v -0.4 1.4 1.4
v -0.4 1.7 1.4
v -0.2 1.1 1.4
v -0.2 1.3 1.4
v -0.0999999 1.5 1.4
v -0.0999999 1.7 1.4
v 0.1 1.5 1.4
v 0.1 1.7 1.4
v 0.2 1.1 1.4
v 0.2 1.3 1.4
v 0.4 1.3 1.4
v 0.4 1.4 1.4
v 0.4 1.7 1.4
v 0.5 0.2 1.4
v 0.5 1.4 1.4
v 0.8 0.2 1.4
v 0.8 1.4 1.4
v 1.3 0.2 1.4
v 1.3 1.4 1.4
v 1.6 0 1.4
v 1.6 1.4 1.4
v 1.8 1.4 1.4
v 1.8 1.7 1.4
v -1.8 0 1.2
v -1.8 1.4 1.2
v -1.6 0 1.2
v -1.6 1.4 1.2
v -1.3 0.2 1.2
v -1.3 1.4 1.2
v -0.8 0.2 1.2
v -0.8 1.4 1.2
v -0.5 0.2 1.2
v -0.5 1.4 1.2
v -0.4 1.3 1.2
v -0.4 1.4 1.2
v -0.2 1.1 1.2
v -0.2 1.3 1.2
v 0.2 1.1 1.2
v 0.2 1.3 1.2
v 0.4 1.3 1.2
v 0.4 1.4 1.2
v 0.5 0.2 1.2
v 0.5 1.4 1.2
v 0.8 0.2 1.2
v 0.8 1.4 1.2
v 1.3 0.2 1.2
v 1.3 1.4 1.2
v 1.6 0 1.2
v 1.6 1.4 1.2
v 1.8 0 1.2
v 1.8 1.4 1.2
v -2 1 0.4
v -2 1.7 0.4
v -1.8 1.4 0.4
v -1.8 1.7 0.4
v -1.7 1 0.4
v -1.7 1.4 0.4
v 1.7 1 0.4
v 1.7 1.4 0.4
v 1.8 1.4 0.4
v 1.8 1.7 0.4
v 2 1 0.4
v 2 1.7 0.4
v -2 1.3 -0.2
v -2 1.7 -0.2
v -1.8 1.4 -0.2
v -1.8 1.7 -0.2
v -1.7 1.3 -0.2
v -1.7 1.4 -0.2
v 1.7 1.3 -0.2
v 1.7 1.4 -0.2
v 1.8 1.4 -0.2
v 1.8 1.7 -0.2
v 2 1.3 -0.2
v 2 1.7 -0.2
v -1.8 0.2 -1
v -1.8 1.4 -1
v -1.6 0.2 -1
v -1.6 1.4 -1
v 1.6 0.2 -1
v 1.6 1.4 -1
v 1.8 0.2 -1
v 1.8 1.4 -1
v -1.5 0.1 -1.2
v -1.5 1.6 -1.2
v -1.4 1.6 -1.2
v 1.4 1.6 -1.2
v 1.5 0.1 -1.2
v 1.5 1.6 -1.2
v -1.4 1.6 -1.3
v -1.4 1.7 -1.3
v 1.4 1.6 -1.3
v 1.4 1.7 -1.3
v -1.5 0.1 1.1
v -1.5 1.6 1.1
v -1.4 1.6 1.1
v -1.4 1.7 1.1
v -0.4 1.6 1.1
v -0.4 1.7 1.1
v -0.2 1.5 1.1
v -0.2 1.6 1.1
v -0.0999999 1.4 1.1
v -0.0999999 1.5 1.1
v -0.0999999 1.7 1.1
v 0.1 1.4 1.1
v 0.1 1.5 1.1
v 0.1 1.7 1.1
v 0.2 1.5 1.1
v 0.2 1.6 1.1
v 0.4 1.6 1.1
v 0.4 1.7 1.1
v 1.4 1.6 1.1
v 1.4 1.7 1.1
v 1.5 0.1 1.1
v 1.5 1.6 1.1
v -1.8 0.2 0.9
v -1.8 1.4 0.9
v -1.6 0.2 0.9
v -1.6 1.4 0.9
v 1.6 0.2 0.9
v 1.6 1.4 0.9
v 1.8 0.2 0.9
v 1.8 1.4 0.9
v -2 1.3 0.1
v -2 1.7 0.1
v -1.8 1.4 0.1
v -1.8 1.7 0.1
v -1.7 1.3 0.1
v -1.7 1.4 0.1
v 1.7 1.3 0.1
v 1.7 1.4 0.1
v 1.8 1.4 0.1
v 1.8 1.7 0.1
v 2 1.3 0.1
v 2 1.7 0.1
v -2 1 -0.5
v -2 1.7 -0.5
v -1.8 1.4 -0.5
v -1.8 1.7 -0.5
v -1.7 1 -0.5
v -1.7 1.4 -0.5
v 1.7 1 -0.5
v 1.7 1.4 -0.5
v 1.8 1.4 -0.5
v 1.8 1.7 -0.5
v 2 1 -0.5
v 2 1.7 -0.5
v -1.8 0 -1.3
v -1.8 1.4 -1.3
v -1.6 0 -1.3
v -1.6 1.4 -1.3
v -1.3 0.2 -1.3
v -1.3 1.4 -1.3
v -0.8 0.2 -1.3
v -0.8 1.4 -1.3
v -0.5 0.2 -1.3
v -0.5 1.4 -1.3
v 0.5 0.2 -1.3
v 0.5 1.4 -1.3
v 0.8 0.2 -1.3
v 0.8 1.4 -1.3
v 1.3 0.2 -1.3
v 1.3 1.4 -1.3
v 1.6 0 -1.3
v 1.6 1.4 -1.3
v 1.8 0 -1.3
v 1.8 1.4 -1.3
v -1.8 1.4 -1.5
v -1.8 1.7 -1.5
v -1.6 0 -1.5
v -1.6 1.4 -1.5
v -1.3 0.2 -1.5
v -1.3 1.4 -1.5
v -0.8 0.2 -1.5
v -0.8 1.4 -1.5
v -0.5 0.2 -1.5
v -0.5 1.4 -1.5
v 0.5 0.2 -1.5
v 0.5 1.4 -1.5
v 0.8 0.2 -1.5
v 0.8 1.4 -1.5
v 1.3 0.2 -1.5
v 1.3 1.4 -1.5
v 1.6 0 -1.5
v 1.6 1.4 -1.5
v 1.8 1.4 -1.5
v 1.8 1.7 -1.5
v -1.6 0 1.4
v 1.6 0 1.4
v -1.8 0 1.2
v -1.6 0 1.2
v 1.6 0 1.2
v 1.8 0 1.2
v -1.5 0 1.1
v 1.5 0 1.1
v -1.5 0 -1.2
v 1.5 0 -1.2
v -1.8 0 -1.3
v -1.6 0 -1.3
v 1.6 0 -1.3
v 1.8 0 -1.3
v -1.6 0 -1.5
v 1.6 0 -1.5
v -2 1 0.4
v -1.7 1 0.4
v 1.7 1 0.4
v 2 1 0.4
v -2 1 -0.5
v -1.7 1 -0.5
v 1.7 1 -0.5
v 2 1 -0.5
v -0.2 1.1 1.4
v 0.2 1.1 1.4
v -0.2 1.1 1.2
v 0.2 1.1 1.2
v -0.4 1.3 1.4
v -0.2 1.3 1.4
v 0.2 1.3 1.4
v 0.4 1.3 1.4
v -0.4 1.3 1.2
v -0.2 1.3 1.2
v 0.2 1.3 1.2
v 0.4 1.3 1.2
v -1.8 1.4 1.4
v -1.6 1.4 1.4
v -1.3 1.4 1.4
v -0.8 1.4 1.4
v -0.5 1.4 1.4
v -0.4 1.4 1.4
v 0.4 1.4 1.4
v 0.5 1.4 1.4
v 0.8 1.4 1.4
v 1.3 1.4 1.4
v 1.6 1.4 1.4
v 1.8 1.4 1.4
v -1.8 1.4 1.2
v -1.6 1.4 1.2
v -1.3 1.4 1.2
v -0.8 1.4 1.2
v -0.5 1.4 1.2
v -0.4 1.4 1.2
v 0.4 1.4 1.2
v 0.5 1.4 1.2
v 0.8 1.4 1.2
v 1.3 1.4 1.2
v 1.6 1.4 1.2
v 1.8 1.4 1.2
v -1.8 1.4 0.9
v -1.6 1.4 0.9
v 1.6 1.4 0.9
v 1.8 1.4 0.9
v -1.8 1.4 0.4
v -1.7 1.4 0.4
v 1.7 1.4 0.4
v 1.8 1.4 0.4
v -1.8 1.4 0.1
v -1.7 1.4 0.1
v 1.7 1.4 0.1
v 1.8 1.4 0.1
v -1.8 1.4 -0.2
v -1.7 1.4 -0.2
v 1.7 1.4 -0.2
v 1.8 1.4 -0.2
v -1.8 1.4 -0.5
v -1.7 1.4 -0.5
v 1.7 1.4 -0.5
v 1.8 1.4 -0.5
v -1.8 1.4 -1
v -1.6 1.4 -1
v 1.6 1.4 -1
v 1.8 1.4 -1
v -1.8 1.4 -1.3
v -1.6 1.4 -1.3
v -1.3 1.4 -1.3
v -0.8 1.4 -1.3
v -0.5 1.4 -1.3
v 0.5 1.4 -1.3
v 0.8 1.4 -1.3
v 1.3 1.4 -1.3
v 1.6 1.4 -1.3
v 1.8 1.4 -1.3
v -1.8 1.4 -1.5
v -1.6 1.4 -1.5
v -1.3 1.4 -1.5
v -0.8 1.4 -1.5
v -0.5 1.4 -1.5
v 0.5 1.4 -1.5
v 0.8 1.4 -1.5
v 1.3 1.4 -1.5
v 1.6 1.4 -1.5
v 1.8 1.4 -1.5
v -1.5 1.6 1.1
v -1.4 1.6 1.1
v 1.4 1.6 1.1
v 1.5 1.6 1.1
v -1.5 1.6 -1.2
v -1.4 1.6 -1.2
v 1.4 1.6 -1.2
v 1.5 1.6 -1.2
v -1.5 0.1 1.1
v 1.5 0.1 1.1
v -1.5 0.1 -1.2
v 1.5 0.1 -1.2
v -1.3 0.2 1.4
v -0.8 0.2 1.4
v -0.5 0.2 1.4
v 0.5 0.2 1.4
v 0.8 0.2 1.4
v 1.3 0.2 1.4
v -1.3 0.2 1.2
v -0.8 0.2 1.2
v -0.5 0.2 1.2
v 0.5 0.2 1.2
v 0.8 0.2 1.2
v 1.3 0.2 1.2
v -1.8 0.2 0.9
v -1.6 0.2 0.9
v 1.6 0.2 0.9
v 1.8 0.2 0.9
v -1.8 0.2 -1
v -1.6 0.2 -1
v 1.6 0.2 -1
v 1.8 0.2 -1
v -1.3 0.2 -1.3
v -0.8 0.2 -1.3
v -0.5 0.2 -1.3
v 0.5 0.2 -1.3
v 0.8 0.2 -1.3
v 1.3 0.2 -1.3
v -1.3 0.2 -1.5
v -0.8 0.2 -1.5
v -0.5 0.2 -1.5
v 0.5 0.2 -1.5
v 0.8 0.2 -1.5
v 1.3 0.2 -1.5
v -2 1.3 0.1
v -1.7 1.3 0.1
v 1.7 1.3 0.1
v 2 1.3 0.1
v -2 1.3 -0.2
v -1.7 1.3 -0.2
v 1.7 1.3 -0.2
v 2 1.3 -0.2
v -0.0999999 1.5 1.4
v 0.1 1.5 1.4
v -0.0999999 1.5 1.1
v 0.1 1.5 1.1
v -1.4 1.6 -1.2
v 1.4 1.6 -1.2
v -1.4 1.6 -1.3
v 1.4 1.6 -1.3
v -1.8 1.7 1.4
v -0.4 1.7 1.4
v -0.0999999 1.7 1.4
v 0.1 1.7 1.4
v 0.4 1.7 1.4
v 1.8 1.7 1.4
v -1.4 1.7 1.1
v -0.4 1.7 1.1
v -0.0999999 1.7 1.1
v 0.1 1.7 1.1
v 0.4 1.7 1.1
v 1.4 1.7 1.1
v -2 1.7 0.4
v -1.8 1.7 0.4
v -1.7 1.7 0.4
v 1.7 1.7 0.4
v 1.8 1.7 0.4
v 2 1.7 0.4
v -2 1.7 0.1
v -1.8 1.7 0.1
v -1.7 1.7 0.1
v 1.7 1.7 0.1
v 1.8 1.7 0.1
v 2 1.7 0.1
v -2 1.7 -0.2
v -1.8 1.7 -0.2
v -1.7 1.7 -0.2
v 1.7 1.7 -0.2
v 1.8 1.7 -0.2
v 2 1.7 -0.2
v -2 1.7 -0.5
v -1.8 1.7 -0.5
v -1.7 1.7 -0.5
v 1.7 1.7 -0.5
v 1.8 1.7 -0.5
v 2 1.7 -0.5
v -1.4 1.7 -1.3
v 1.4 1.7 -1.3
v -1.8 1.7 -1.5
v 1.8 1.7 -1.5

# faces
f 3/2/1 2/2/1 1/2/1
f 4/2/1 2/2/1 3/2/1
f 5/2/1 3/2/1 1/2/1
f 6/2/1 3/2/1 5/2/1
f 7/2/1 2/2/1 4/2/1
f 8/2/1 2/2/1 7/2/1
f 11/3/1 10/3/1 9/3/1
f 12/3/1 10/3/1 11/3/1
f 14/3/1 11/3/1 9/3/1
f 15/3/1 11/3/1 14/3/1
f 20/3/1 10/3/1 12/3/1
f 21/3/1 10/3/1 20/3/1
f 23/3/1 14/3/1 13/3/1
f 23/3/1 15/3/1 14/3/1
f 23/3/1 16/3/1 15/3/1
f 24/3/1 16/3/1 23/3/1
f 25/3/1 18/3/1 17/3/1
f 26/3/1 18/3/1 25/3/1
f 27/3/1 22/3/1 21/3/1
f 27/3/1 21/3/1 20/3/1
f 27/3/1 20/3/1 19/3/1
f 28/3/1 22/3/1 27/3/1
f 35/3/1 30/3/1 29/3/1
f 36/3/1 30/3/1 35/3/1
f 37/1/1 34/1/1 33/1/1
f 38/1/1 34/1/1 37/1/1
f 39/3/1 32/3/1 31/3/1
f 40/3/1 32/3/1 39/3/1
f 45/3/1 42/3/1 41/3/1
f 46/3/1 42/3/1 45/3/1
f 47/3/1 44/3/1 43/3/1
f 48/3/1 44/3/1 47/3/1
f 51/2/1 50/2/1 49/2/1
f 52/2/1 50/2/1 51/2/1
f 55/2/1 54/2/1 53/2/1
f 56/2/1 54/2/1 55/2/1
f 59/2/1 58/2/1 57/2/1
f 60/2/1 58/2/1 59/2/1
f 65/3/1 62/3/1 61/3/1
f 66/3/1 62/3/1 65/3/1
f 67/3/1 64/3/1 63/3/1
f 68/3/1 64/3/1 67/3/1
f 73/3/1 70/3/1 69/3/1
f 74/3/1 70/3/1 73/3/1
f 75/3/1 72/3/1 71/3/1
f 76/3/1 72/3/1 75/3/1
f 80/3/1 78/3/1 77/3/1
f 80/3/1 79/3/1 78/3/1
f 81/3/1 79/3/1 80/3/1
f 84/1/1 83/1/1 82/1/1
f 85/1/1 83/1/1 84/1/1
f 88/2/1 87/2/1 86/2/1
f 89/2/1 87/2/1 88/2/1
f 90/2/1 88/2/1 86/2/1
f 91/2/1 88/2/1 90/2/1
f 92/2/1 87/2/1 89/2/1
f 93/2/1 87/2/1 92/2/1
f 94/2/2 95/2/2 96/2/2
f 96/2/2 95/2/2 97/2/2
f 94/2/2 96/2/2 98/2/2
f 98/2/2 96/2/2 99/2/2
f 97/2/2 95/2/2 100/2/2
f 100/2/2 95/2/2 101/2/2
f 102/1/2 103/1/2 104/1/2
f 104/1/2 103/1/2 105/1/2
f 106/3/2 107/3/2 109/3/2
f 107/3/2 108/3/2 109/3/2
f 109/3/2 108/3/2 110/3/2
f 111/3/2 112/3/2 115/3/2
f 115/3/2 112/3/2 116/3/2
f 113/3/2 114/3/2 117/3/2
f 117/3/2 114/3/2 118/3/2
f 119/3/2 120/3/2 123/3/2
f 123/3/2 120/3/2 124/3/2
f 121/3/2 122/3/2 125/3/2
f 125/3/2 122/3/2 126/3/2
f 127/2/2 128/2/2 129/2/2
f 129/2/2 128/2/2 130/2/2
f 131/2/2 132/2/2 133/2/2
f 133/2/2 132/2/2 134/2/2
f 135/2/2 136/2/2 137/2/2
f 137/2/2 136/2/2 138/2/2
f 139/3/2 140/3/2 143/3/2
f 143/3/2 140/3/2 144/3/2
f 141/3/2 142/3/2 145/3/2
f 145/3/2 142/3/2 146/3/2
f 147/3/2 148/3/2 153/3/2
f 153/3/2 148/3/2 154/3/2
f 151/1/2 152/1/2 155/1/2
f 155/1/2 152/1/2 156/1/2
f 149/3/2 150/3/2 157/3/2
f 157/3/2 150/3/2 158/3/2
f 159/3/2 160/3/2 161/3/2
f 161/3/2 160/3/2 162/3/2
f 159/3/2 161/3/2 164/3/2
f 164/3/2 161/3/2 165/3/2
f 162/3/2 160/3/2 170/3/2
f 170/3/2 160/3/2 171/3/2
f 163/3/2 164/3/2 173/3/2
f 164/3/2 165/3/2 173/3/2
f 165/3/2 166/3/2 173/3/2
f 173/3/2 166/3/2 174/3/2
f 167/3/2 168/3/2 175/3/2
f 175/3/2 168/3/2 176/3/2
f 171/3/2 172/3/2 177/3/2
f 170/3/2 171/3/2 177/3/2
f 169/3/2 170/3/2 177/3/2
f 177/3/2 172/3/2 178/3/2
f 179/2/2 180/2/2 181/2/2
f 181/2/2 180/2/2 182/2/2
f 179/2/2 181/2/2 183/2/2
f 183/2/2 181/2/2 184/2/2
f 182/2/2 180/2/2 185/2/2
f 185/2/2 180/2/2 186/2/2
f 190/3/3 188/3/3 187/3/3
f 191/3/3 190/3/3 189/3/3
f 192/3/3 188/3/3 190/3/3
f 192/3/3 190/3/3 191/3/3
f 193/3/3 191/3/3 189/3/3
f 194/3/3 188/3/3 192/3/3
f 195/3/3 193/3/3 189/3/3
f 195/3/3 194/3/3 193/3/3
f 196/3/3 188/3/3 194/3/3
f 196/3/3 194/3/3 195/3/3
f 198/3/3 188/3/3 196/3/3
f 199/3/3 188/3/3 198/3/3
f 201/2/3 198/2/3 197/2/3
f 201/2/3 199/2/3 198/2/3
f 202/2/3 199/2/3 201/2/3
f 202/2/3 201/2/3 200/2/3
f 203/2/3 199/2/3 202/2/3
f 204/2/3 202/2/3 200/2/3
f 206/2/3 204/2/3 200/2/3
f 206/2/3 205/2/3 204/2/3
f 207/2/3 205/2/3 206/2/3
f 208/2/3 205/2/3 207/2/3
f 209/2/3 205/2/3 208/2/3
f 210/2/3 205/2/3 209/2/3
f 211/3/3 195/3/3 189/3/3
f 212/3/3 210/3/3 209/3/3
f 213/3/3 211/3/3 189/3/3
f 213/3/3 212/3/3 211/3/3
f 214/3/3 210/3/3 212/3/3
f 214/3/3 212/3/3 213/3/3
f 215/3/3 213/3/3 189/3/3
f 216/3/3 210/3/3 214/3/3
f 217/3/3 215/3/3 189/3/3
f 217/3/3 216/3/3 215/3/3
f 218/3/3 210/3/3 216/3/3
f 218/3/3 216/3/3 217/3/3
f 219/3/3 210/3/3 218/3/3
f 220/3/3 210/3/3 219/3/3
f 223/3/3 222/3/3 221/3/3
f 224/3/3 222/3/3 223/3/3
f 227/1/3 226/1/3 225/1/3
f 228/1/3 226/1/3 227/1/3
f 231/1/3 230/1/3 229/1/3
f 232/1/3 230/1/3 231/1/3
f 233/1/3 231/1/3 229/1/3
f 234/1/3 231/1/3 233/1/3
f 235/1/3 233/1/3 229/1/3
f 237/1/3 236/1/3 235/1/3
f 239/1/3 237/1/3 235/1/3
f 239/1/3 238/1/3 237/1/3
f 239/1/3 235/1/3 229/1/3
f 240/1/3 238/1/3 239/1/3
f 243/1/3 242/1/3 241/1/3
f 244/1/3 242/1/3 243/1/3
f 247/3/3 246/3/3 245/3/3
f 248/3/3 246/3/3 247/3/3
f 251/2/3 250/2/3 249/2/3
f 252/2/3 250/2/3 251/2/3
f 253/2/3 251/2/3 249/2/3
f 254/2/3 251/2/3 253/2/3
f 257/2/3 256/2/3 255/2/3
f 259/2/3 257/2/3 255/2/3
f 259/2/3 258/2/3 257/2/3
f 260/2/3 258/2/3 259/2/3
f 263/2/3 262/2/3 261/2/3
f 264/2/3 262/2/3 263/2/3
f 265/2/3 263/2/3 261/2/3
f 266/2/3 263/2/3 265/2/3
f 269/2/3 268/2/3 267/2/3
f 271/2/3 269/2/3 267/2/3
f 271/2/3 270/2/3 269/2/3
f 272/2/3 270/2/3 271/2/3
f 275/3/3 274/3/3 273/3/3
f 276/3/3 274/3/3 275/3/3
f 279/3/3 278/3/3 277/3/3
f 280/3/3 278/3/3 279/3/3
f 283/1/3 282/1/3 281/1/3
f 284/1/3 283/1/3 281/1/3
f 285/1/3 284/1/3 281/1/3
f 286/1/3 284/1/3 285/1/3
f 289/3/3 288/3/3 287/3/3
f 290/3/3 288/3/3 289/3/3
f 291/1/4 292/1/4 293/1/4
f 291/1/4 293/1/4 295/1/4
f 293/3/4 294/3/4 295/3/4
f 295/3/4 294/3/4 296/3/4
f 291/1/4 295/1/4 297/1/4
f 295/2/4 296/2/4 298/2/4
f 297/1/4 295/1/4 298/1/4
f 291/1/4 297/1/4 299/1/4
f 297/2/4 298/2/4 300/2/4
f 299/1/4 297/1/4 300/1/4
f 298/2/4 296/2/4 301/2/4
f 300/2/4 298/2/4 301/2/4
f 299/2/4 300/2/4 302/2/4
f 291/1/4 299/1/4 302/1/4
f 302/2/4 300/2/4 303/2/4
f 302/1/4 303/1/4 305/1/4
f 303/2/4 304/2/4 305/2/4
f 305/2/4 304/2/4 306/2/4
f 305/1/4 306/1/4 307/1/4
f 306/2/4 304/2/4 307/2/4
f 307/2/4 304/2/4 308/2/4
f 305/1/4 307/1/4 309/1/4
f 307/3/4 308/3/4 309/3/4
f 309/3/4 308/3/4 310/3/4
f 291/1/4 302/1/4 311/1/4
f 302/1/4 305/1/4 311/1/4
f 305/1/4 309/1/4 311/1/4
f 311/1/4 309/1/4 312/1/4
f 313/3/4 314/3/4 315/3/4
f 315/3/4 314/3/4 316/3/4
f 317/3/4 318/3/4 319/3/4
f 319/3/4 318/3/4 320/3/4
f 321/2/4 322/2/4 323/2/4
f 323/2/4 322/2/4 324/2/4
f 321/2/4 323/2/4 325/2/4
f 325/2/4 323/2/4 326/2/4
f 327/2/4 328/2/4 329/2/4
f 327/2/4 329/2/4 331/2/4
f 329/2/4 330/2/4 331/2/4
f 331/2/4 330/2/4 332/2/4
f 333/2/4 334/2/4 335/2/4
f 335/2/4 334/2/4 336/2/4
f 333/2/4 335/2/4 337/2/4
f 337/2/4 335/2/4 338/2/4
f 339/2/4 340/2/4 341/2/4
f 339/2/4 341/2/4 343/2/4
f 341/2/4 342/2/4 343/2/4
f 343/2/4 342/2/4 344/2/4
f 345/3/4 346/3/4 347/3/4
f 347/3/4 346/3/4 348/3/4
f 349/1/4 350/1/4 351/1/4
f 351/1/4 350/1/4 352/1/4
f 353/1/4 354/1/4 355/1/4
f 355/1/4 354/1/4 356/1/4
f 357/1/4 358/1/4 359/1/4
f 359/1/4 358/1/4 360/1/4
f 361/3/4 362/3/4 363/3/4
f 363/3/4 362/3/4 364/3/4
f 365/3/4 366/3/4 368/3/4
f 367/3/4 368/3/4 369/3/4
f 368/3/4 366/3/4 370/3/4
f 369/3/4 368/3/4 370/3/4
f 367/3/4 369/3/4 371/3/4
f 370/3/4 366/3/4 372/3/4
f 367/3/4 371/3/4 373/3/4
f 371/3/4 372/3/4 373/3/4
f 372/3/4 366/3/4 374/3/4
f 373/3/4 372/3/4 374/3/4
f 367/3/4 373/3/4 375/3/4
f 374/3/4 366/3/4 376/3/4
f 367/3/4 375/3/4 377/3/4
f 375/3/4 376/3/4 377/3/4
f 376/3/4 366/3/4 378/3/4
f 377/3/4 376/3/4 378/3/4
f 367/3/4 377/3/4 379/3/4
f 378/3/4 366/3/4 380/3/4
f 367/3/4 379/3/4 381/3/4
f 379/3/4 380/3/4 381/3/4
f 380/3/4 366/3/4 382/3/4
f 381/3/4 380/3/4 382/3/4
f 382/3/4 366/3/4 383/3/4
f 383/3/4 366/3/4 384/3/4
f 388/3/5 386/3/5 385/3/5
f 389/3/5 386/3/5 388/3/5
f 391/3/5 388/3/5 387/3/5
f 391/3/5 390/3/5 389/3/5
f 391/3/5 389/3/5 388/3/5
f 392/3/5 390/3/5 391/3/5
f 393/3/5 391/3/5 387/3/5
f 393/1/5 392/1/5 391/1/5
f 394/3/5 390/3/5 392/3/5
f 394/1/5 392/1/5 393/1/5
f 395/3/5 393/3/5 387/3/5
f 395/3/5 394/3/5 393/3/5
f 396/3/5 394/3/5 395/3/5
f 397/3/5 390/3/5 394/3/5
f 397/3/5 394/3/5 396/3/5
f 398/3/5 390/3/5 397/3/5
f 399/3/5 397/3/5 396/3/5
f 400/3/5 397/3/5 399/3/5
f 405/2/5 402/2/5 401/2/5
f 406/2/5 402/2/5 405/2/5
f 407/2/5 404/2/5 403/2/5
f 408/2/5 404/2/5 407/2/5
f 411/2/5 410/2/5 409/2/5
f 412/2/5 410/2/5 411/2/5
f 417/2/5 414/2/5 413/2/5
f 418/2/5 414/2/5 417/2/5
f 419/2/5 416/2/5 415/2/5
f 420/2/5 416/2/5 419/2/5
f 433/3/5 422/3/5 421/3/5
f 434/3/5 422/3/5 433/3/5
f 435/3/5 424/3/5 423/3/5
f 436/3/5 424/3/5 435/3/5
f 437/3/5 426/3/5 425/3/5
f 438/3/5 426/3/5 437/3/5
f 439/3/5 428/3/5 427/3/5
f 440/3/5 428/3/5 439/3/5
f 441/3/5 430/3/5 429/3/5
f 442/3/5 430/3/5 441/3/5
f 443/3/5 432/3/5 431/3/5
f 444/3/5 432/3/5 443/3/5
f 449/3/5 446/3/5 445/3/5
f 450/3/5 446/3/5 449/3/5
f 451/3/5 448/3/5 447/3/5
f 452/3/5 448/3/5 451/3/5
f 454/3/5 446/3/5 450/3/5
f 455/3/5 451/3/5 447/3/5
f 457/3/5 454/3/5 453/3/5
f 458/3/5 446/3/5 454/3/5
f 458/3/5 454/3/5 457/3/5
f 459/3/5 456/3/5 455/3/5
f 459/3/5 455/3/5 447/3/5
f 460/3/5 456/3/5 459/3/5
f 462/3/5 446/3/5 458/3/5
f 463/3/5 459/3/5 447/3/5
f 465/3/5 462/3/5 461/3/5
f 466/3/5 446/3/5 462/3/5
f 466/3/5 462/3/5 465/3/5
f 467/3/5 464/3/5 463/3/5
f 467/3/5 463/3/5 447/3/5
f 468/3/5 464/3/5 467/3/5
f 479/3/5 470/3/5 469/3/5
f 480/3/5 470/3/5 479/3/5
f 481/3/5 472/3/5 471/3/5
f 482/3/5 472/3/5 481/3/5
f 483/3/5 474/3/5 473/3/5
f 484/3/5 474/3/5 483/3/5
f 485/3/5 476/3/5 475/3/5
f 486/3/5 476/3/5 485/3/5
f 487/3/5 478/3/5 477/3/5
f 488/3/5 478/3/5 487/3/5
f 493/3/5 490/3/5 489/3/5
f 494/3/5 490/3/5 493/3/5
f 495/3/5 492/3/5 491/3/5
f 496/3/5 492/3/5 495/3/5
f 497/1/6 498/1/6 499/1/6
f 499/1/6 498/1/6 500/1/6
f 501/3/6 502/3/6 507/3/6
f 507/3/6 502/3/6 508/3/6
f 503/3/6 504/3/6 509/3/6
f 509/3/6 504/3/6 510/3/6
f 505/3/6 506/3/6 511/3/6
f 511/3/6 506/3/6 512/3/6
f 513/3/6 514/3/6 517/3/6
f 517/3/6 514/3/6 518/3/6
f 515/3/6 516/3/6 519/3/6
f 519/3/6 516/3/6 520/3/6
f 521/3/6 522/3/6 527/3/6
f 527/3/6 522/3/6 528/3/6
f 523/3/6 524/3/6 529/3/6
f 529/3/6 524/3/6 530/3/6
f 525/3/6 526/3/6 531/3/6
f 531/3/6 526/3/6 532/3/6
f 533/2/6 534/2/6 537/2/6
f 537/2/6 534/2/6 538/2/6
f 535/2/6 536/2/6 539/2/6
f 539/2/6 536/2/6 540/2/6
f 541/2/6 542/2/6 543/2/6
f 543/2/6 542/2/6 544/2/6
f 545/1/6 546/1/6 547/1/6
f 547/1/6 546/1/6 548/1/6
f 549/3/6 550/3/6 555/3/6
f 550/2/6 551/2/6 556/2/6
f 555/3/6 550/3/6 556/3/6
f 556/2/6 551/2/6 557/2/6
f 552/2/6 553/2/6 558/2/6
f 553/3/6 554/3/6 559/3/6
f 558/2/6 553/2/6 559/2/6
f 559/3/6 554/3/6 560/3/6
f 549/3/6 555/3/6 562/3/6
f 562/3/6 555/3/6 563/3/6
f 560/3/6 554/3/6 564/3/6
f 564/3/6 554/3/6 565/3/6
f 561/2/6 562/2/6 567/2/6
f 562/2/6 563/2/6 567/2/6
f 567/2/6 563/2/6 568/2/6
f 563/3/6 555/3/6 569/3/6
f 568/2/6 563/2/6 569/2/6
f 565/2/6 566/2/6 570/2/6
f 564/2/6 565/2/6 570/2/6
f 560/3/6 564/3/6 570/3/6
f 570/2/6 566/2/6 571/2/6
f 571/2/6 566/2/6 572/2/6
f 568/3/6 569/3/6 574/3/6
f 569/3/6 555/3/6 575/3/6
f 574/3/6 569/3/6 575/3/6
f 570/3/6 571/3/6 576/3/6
f 560/3/6 570/3/6 576/3/6
f 576/3/6 571/3/6 577/3/6
f 573/2/6 574/2/6 579/2/6
f 574/2/6 575/2/6 579/2/6
f 579/2/6 575/2/6 580/2/6
f 575/3/6 555/3/6 581/3/6
f 580/2/6 575/2/6 581/2/6
f 577/2/6 578/2/6 582/2/6
f 576/2/6 577/2/6 582/2/6
f 560/3/6 576/3/6 582/3/6
f 582/2/6 578/2/6 583/2/6
f 583/2/6 578/2/6 584/2/6
f 581/3/6 555/3/6 585/3/6
f 580/3/6 581/3/6 585/3/6
f 582/3/6 583/3/6 586/3/6
f 560/3/6 582/3/6 586/3/6
f 580/3/6 585/3/6 587/3/6
f 585/3/6 586/3/6 587/3/6
f 586/3/6 583/3/6 588/3/6
f 587/3/6 586/3/6 588/3/6
